<svg width="22" height="18" viewBox="0 0 22 18" fill="none" xmlns="http://www.w3.org/2000/svg">
<path d="M0.437531 2H13.5625C13.804 2 14 1.553 14 1C14 0.447 13.804 0 13.5625 0H0.437531C0.196031 0 3.05176e-05 0.447 3.05176e-05 1C3.05176e-05 1.553 0.195593 2 0.437531 2Z" fill="#371B34"/>
<path d="M7.46878 18H21.5313C21.79 18 22 17.553 22 17C22 16.447 21.79 16 21.5313 16H7.46878C7.21003 16 7.00003 16.447 7.00003 17C7.00003 17.553 7.20956 18 7.46878 18Z" fill="#371B34"/>
<path d="M0.687531 10H21.3125C21.692 10 22 9.553 22 9C22 8.447 21.692 8 21.3125 8H0.687531C0.308031 8 3.05176e-05 8.447 3.05176e-05 9C3.05176e-05 9.553 0.307343 10 0.687531 10Z" fill="#371B34"/>
</svg>
