<svg width="30" height="30" viewBox="0 0 30 30" fill="none" xmlns="http://www.w3.org/2000/svg">
<path fill-rule="evenodd" clip-rule="evenodd" d="M28.6705 11.1403L20.1535 2.58163C17.0905 -0.481148 12.1404 -0.481148 9.07741 2.58163L0.560465 11.1403C0.28611 11.414 0.203692 11.8273 0.351899 12.186C0.500107 12.5448 0.84951 12.778 1.23609 12.7759H2.67947V22.1062C2.6851 25.8876 5.73417 28.9516 9.49712 28.9572H10.961C11.4884 28.9516 11.913 28.5203 11.913 27.9903V20.1311H17.318V27.9903C17.3179 28.5203 17.7425 28.9516 18.27 28.9572H19.7338C23.4968 28.9516 26.5458 25.8876 26.5515 22.1062V12.7759H27.9949C28.3814 12.778 28.7308 12.5448 28.8791 12.186C29.0273 11.8273 28.9448 11.414 28.6705 11.1403ZM10.4262 3.94161C11.5361 2.82471 13.0423 2.19711 14.613 2.19711C16.1837 2.19711 17.69 2.82471 18.7998 3.94161L25.6789 10.8544H3.54714L10.4262 3.94161ZM19.7463 27.0348C22.452 27.0291 24.644 24.8263 24.6497 22.1073V12.7771H4.60619V22.1073C4.61182 24.8263 6.80385 27.0291 9.50958 27.0348H10.0112V19.1653C10.0168 18.6353 10.446 18.2086 10.9734 18.2086H18.2824C18.8099 18.2086 19.2391 18.6353 19.2447 19.1653V27.0348H19.7463Z" fill="#CDD0E3"/>
<path d="M20.1535 2.58163L20.3307 2.40528L20.3303 2.40484L20.1535 2.58163ZM28.6705 11.1403L28.4933 11.3167L28.4939 11.3173L28.6705 11.1403ZM9.07741 2.58163L8.90064 2.40484L8.9002 2.40528L9.07741 2.58163ZM0.560465 11.1403L0.737028 11.3173L0.737674 11.3167L0.560465 11.1403ZM0.351899 12.186L0.120836 12.2815H0.120836L0.351899 12.186ZM1.23609 12.7759V12.5259L1.23479 12.5259L1.23609 12.7759ZM2.67947 12.7759H2.92947V12.5259H2.67947V12.7759ZM2.67947 22.1062H2.42947L2.42947 22.1065L2.67947 22.1062ZM9.49712 28.9572L9.49674 29.2072H9.49712V28.9572ZM10.961 28.9572V29.2073L10.9636 29.2072L10.961 28.9572ZM11.913 27.9903H11.663V27.9903L11.913 27.9903ZM11.913 20.1311V19.8811H11.663V20.1311H11.913ZM17.318 20.1311H17.568V19.8811H17.318V20.1311ZM17.318 27.9903L17.568 27.9903V27.9903H17.318ZM18.27 28.9572L18.2673 29.2072H18.27V28.9572ZM19.7338 28.9572V29.2072H19.7342L19.7338 28.9572ZM26.5515 22.1062L26.8015 22.1065V22.1062H26.5515ZM26.5515 12.7759V12.5259H26.3015V12.7759H26.5515ZM27.9949 12.7759L27.9962 12.5259H27.9949V12.7759ZM28.8791 12.186L29.1101 12.2815V12.2815L28.8791 12.186ZM10.4262 3.94161L10.6034 4.11795L10.6035 4.11783L10.4262 3.94161ZM18.7998 3.94161L18.6225 4.11783L18.6226 4.11795L18.7998 3.94161ZM25.6789 10.8544V11.1044H26.2804L25.8561 10.6781L25.6789 10.8544ZM3.54714 10.8544L3.36993 10.6781L2.94567 11.1044H3.54714V10.8544ZM24.6497 22.1073L24.8997 22.1079V22.1073H24.6497ZM19.7463 27.0348V27.2848H19.7468L19.7463 27.0348ZM24.6497 12.7771H24.8997V12.5271H24.6497V12.7771ZM4.60619 12.7771V12.5271H4.35619V12.7771H4.60619ZM4.60619 22.1073H4.35619L4.35619 22.1079L4.60619 22.1073ZM9.50958 27.0348L9.50906 27.2848H9.50958V27.0348ZM10.0112 27.0348V27.2848H10.2612V27.0348H10.0112ZM10.0112 19.1653L9.76118 19.1626V19.1653H10.0112ZM10.9734 18.2086L10.9734 18.4586H10.9734V18.2086ZM18.2824 18.2086V18.4586H18.2825L18.2824 18.2086ZM19.2447 19.1653H19.4947L19.4947 19.1626L19.2447 19.1653ZM19.2447 27.0348H18.9947V27.2848H19.2447V27.0348ZM19.9763 2.75797L28.4933 11.3167L28.8477 10.964L20.3307 2.40528L19.9763 2.75797ZM9.25418 2.75841C12.2196 -0.206742 17.0114 -0.206742 19.9768 2.75841L20.3303 2.40484C17.1696 -0.755553 12.0613 -0.755553 8.90064 2.40484L9.25418 2.75841ZM0.737674 11.3167L9.25462 2.75797L8.9002 2.40528L0.383257 10.964L0.737674 11.3167ZM0.582963 12.0906C0.473278 11.8251 0.534439 11.5194 0.737027 11.3173L0.383904 10.9633C0.037782 11.3086 -0.0658944 11.8294 0.120836 12.2815L0.582963 12.0906ZM1.23479 12.5259C0.950452 12.5274 0.692568 12.3559 0.582963 12.0906L0.120836 12.2815C0.307647 12.7337 0.748568 13.0285 1.23739 13.0259L1.23479 12.5259ZM2.67947 12.5259H1.23609V13.0259H2.67947V12.5259ZM2.92947 22.1062V12.7759H2.42947V22.1062H2.92947ZM9.49749 28.7072C5.87347 28.7018 2.9349 25.7506 2.92947 22.1058L2.42947 22.1065C2.43531 26.0246 5.59487 29.2014 9.49674 29.2072L9.49749 28.7072ZM10.961 28.7072H9.49712V29.2072H10.961V28.7072ZM11.663 27.9903C11.663 28.3844 11.3476 28.7031 10.9583 28.7073L10.9636 29.2072C11.6292 29.2001 12.163 28.6562 12.163 27.9903L11.663 27.9903ZM11.663 20.1311V27.9903H12.163V20.1311H11.663ZM17.318 19.8811H11.913V20.3811H17.318V19.8811ZM17.568 27.9903V20.1311H17.068V27.9903H17.568ZM18.2727 28.7073C17.8834 28.7031 17.5679 28.3844 17.568 27.9903L17.068 27.9903C17.0679 28.6562 17.6017 29.2001 18.2673 29.2072L18.2727 28.7073ZM19.7338 28.7072H18.27V29.2072H19.7338V28.7072ZM26.3015 22.1058C26.2961 25.7506 23.3575 28.7018 19.7335 28.7072L19.7342 29.2072C23.6361 29.2014 26.7956 26.0246 26.8015 22.1065L26.3015 22.1058ZM26.3015 12.7759V22.1062H26.8015V12.7759H26.3015ZM27.9949 12.5259H26.5515V13.0259H27.9949V12.5259ZM28.648 12.0906C28.5384 12.3559 28.2805 12.5274 27.9962 12.5259L27.9936 13.0259C28.4824 13.0285 28.9233 12.7337 29.1101 12.2815L28.648 12.0906ZM28.4939 11.3173C28.6965 11.5194 28.7577 11.8251 28.648 12.0906L29.1101 12.2815C29.2968 11.8294 29.1932 11.3086 28.847 10.9633L28.4939 11.3173ZM14.613 1.94711C12.9756 1.94711 11.4055 2.6014 10.2489 3.76539L10.6035 4.11783C11.6666 3.04802 13.1091 2.44711 14.613 2.44711V1.94711ZM18.9772 3.76539C17.8205 2.6014 16.2505 1.94711 14.613 1.94711V2.44711C16.117 2.44711 17.5594 3.04802 18.6225 4.11783L18.9772 3.76539ZM25.8561 10.6781L18.9771 3.76527L18.6226 4.11795L25.5017 11.0308L25.8561 10.6781ZM3.54714 11.1044H25.6789V10.6044H3.54714V11.1044ZM10.249 3.76527L3.36993 10.6781L3.72435 11.0308L10.6034 4.11795L10.249 3.76527ZM24.3997 22.1068C24.3943 24.6893 22.3127 26.7794 19.7458 26.7848L19.7468 27.2848C22.5914 27.2788 24.8938 24.9634 24.8997 22.1079L24.3997 22.1068ZM24.3997 12.7771V22.1073H24.8997V12.7771H24.3997ZM4.60619 13.0271H24.6497V12.5271H4.60619V13.0271ZM4.85619 22.1073V12.7771H4.35619V22.1073H4.85619ZM9.5101 26.7848C6.94318 26.7794 4.86154 24.6893 4.85619 22.1068L4.35619 22.1079C4.36211 24.9634 6.66452 27.2788 9.50906 27.2848L9.5101 26.7848ZM10.0112 26.7848H9.50958V27.2848H10.0112V26.7848ZM9.76118 19.1653V27.0348H10.2612V19.1653H9.76118ZM10.9734 17.9586C10.3078 17.9586 9.76824 18.4967 9.76119 19.1626L10.2612 19.1679C10.2653 18.7738 10.5841 18.4586 10.9734 18.4586L10.9734 17.9586ZM18.2824 17.9586H10.9734V18.4586H18.2824V17.9586ZM19.4947 19.1626C19.4876 18.4967 18.9481 17.9586 18.2824 17.9586L18.2825 18.4586C18.6717 18.4586 18.9905 18.7738 18.9947 19.1679L19.4947 19.1626ZM19.4947 27.0348V19.1653H18.9947V27.0348H19.4947ZM19.7463 26.7848H19.2447V27.2848H19.7463V26.7848Z" fill="#CDD0E3"/>
</svg>
