<svg width="27" height="27" viewBox="0 0 27 27" fill="none" xmlns="http://www.w3.org/2000/svg">
<path d="M14.85 9.6795C14.0396 9.39296 13.1589 9.37173 12.3356 9.61888C11.5123 9.86603 10.7889 10.3687 10.2703 11.0543C9.75162 11.7398 9.46453 12.5726 9.45057 13.4321C9.4366 14.2916 9.69648 15.1333 10.1926 15.8353C10.6887 16.5373 11.3954 17.0632 12.2102 17.337C13.0251 17.6108 13.9059 17.6182 14.7253 17.3581C15.5446 17.098 16.26 16.584 16.7678 15.8904C17.2756 15.1968 17.5496 14.3596 17.55 13.5V0.6183C23.027 2.3382 27 7.4547 27 13.5C27 20.9561 20.9561 27 13.5 27C6.04398 27 3.05176e-05 20.9561 3.05176e-05 13.5C3.05176e-05 6.04395 6.04398 0 13.5 0C13.955 0 14.4059 0.0229499 14.85 0.0674999V9.6795Z" fill="#371B34"/>
</svg>
