<svg width="27" height="27" viewBox="0 0 27 27" fill="none" xmlns="http://www.w3.org/2000/svg">
<path d="M17.55 3.42676V13.4661C17.5496 14.3279 17.2756 15.1672 16.7678 15.8625C16.26 16.5579 15.5446 17.0732 14.7253 17.3339C13.9059 17.5946 13.0251 17.5872 12.2102 17.3128C11.3954 17.0383 10.6887 16.511 10.1926 15.8073C9.69648 15.1035 9.4366 14.2597 9.45057 13.3981C9.46453 12.5364 9.75162 11.7015 10.2703 11.0143C10.7889 10.327 11.5123 9.82307 12.3356 9.5753C13.1589 9.32753 14.0396 9.34881 14.85 9.63607V0C21.6716 0.678044 27 6.44886 27 13.4661C27 20.9409 20.9561 26.9999 13.5 26.9999C6.04398 26.9999 3.05176e-05 20.9409 3.05176e-05 13.4661C3.05176e-05 6.44886 5.32848 0.678044 12.15 0V2.723C9.42669 3.07039 6.93748 4.44432 5.18834 6.56555C3.43919 8.68677 2.56136 11.3961 2.73327 14.1429C2.90518 16.8896 4.11393 19.4677 6.11383 21.3531C8.11374 23.2385 10.7547 24.2898 13.5 24.2932C16.0074 24.2946 18.4372 23.4213 20.3726 21.8231C22.308 20.225 23.6283 18.0015 24.1072 15.5341C24.5861 13.0666 24.1937 10.5091 22.9973 8.29998C21.8009 6.0909 19.875 4.36799 17.55 3.42676Z" fill="#CDD0E3"/>
</svg>
