<svg width="18" height="16" viewBox="0 0 18 16" fill="none" xmlns="http://www.w3.org/2000/svg">
<path opacity="0.75" d="M14.58 12.5041H15.7871L14.9336 11.6505L14.6436 11.3605C14.549 11.266 14.4959 11.1378 14.4959 11.0041C14.4959 10.8704 14.549 10.7422 14.6436 10.6476C14.7381 10.5531 14.8663 10.5 15 10.5C15.1337 10.5 15.2619 10.5531 15.3564 10.6476L17.355 12.6462C17.3553 12.6465 17.3555 12.6467 17.3557 12.6469C17.4017 12.6935 17.4381 12.7487 17.4629 12.8092C17.4878 12.8702 17.5004 12.9354 17.5 13.0012H17.5L17.5 13.007C17.5004 13.0728 17.4878 13.138 17.4629 13.1989C17.4381 13.2595 17.4017 13.3147 17.3557 13.3612C17.3555 13.3615 17.3553 13.3617 17.355 13.362L15.3579 15.3591C15.3577 15.3593 15.3574 15.3595 15.3572 15.3598C15.3106 15.4058 15.2555 15.4422 15.1948 15.467C15.1339 15.4919 15.0687 15.5045 15.0029 15.5041V15.5041L14.9971 15.5041C14.9313 15.5045 14.8661 15.4919 14.8052 15.467C14.7442 15.4421 14.6888 15.4054 14.6421 15.3591L14.6421 15.3591C14.5952 15.3126 14.558 15.2573 14.5327 15.1964C14.5073 15.1355 14.4942 15.0701 14.4942 15.0041C14.4942 14.9381 14.5073 14.8727 14.5327 14.8118C14.5577 14.7517 14.5942 14.6971 14.6402 14.651L14.9375 14.3636L15.8266 13.5041H14.59H13.0004C12.0922 13.5034 11.1983 13.2779 10.3986 12.8476C9.59881 12.4173 8.91804 11.7957 8.41703 11.0383L8 10.4077L7.58297 11.0383C7.08196 11.7957 6.40119 12.4173 5.60143 12.8476C4.80166 13.2779 3.9078 13.5034 2.99963 13.5041H1C0.867391 13.5041 0.740214 13.4514 0.646446 13.3576C0.552679 13.2639 0.5 13.1367 0.5 13.0041C0.5 12.8715 0.552679 12.7443 0.646446 12.6505C0.740214 12.5568 0.867391 12.5041 1 12.5041H3C4.19347 12.5041 5.33807 12.03 6.18198 11.1861C7.02589 10.3422 7.5 9.19757 7.5 8.00409C7.5 6.81062 7.02589 5.66602 6.18198 4.82211C5.33807 3.9782 4.19347 3.50409 3 3.50409H1C0.867392 3.50409 0.740215 3.45141 0.646447 3.35765C0.552678 3.26388 0.5 3.1367 0.5 3.00409C0.5 2.87148 0.552678 2.74431 0.646447 2.65054C0.740215 2.55677 0.867392 2.50409 1 2.50409L2.99963 2.50409C2.99974 2.50409 2.99984 2.50409 2.99995 2.50409C2.99997 2.50409 2.99998 2.50409 3 2.50409C3.90804 2.50482 4.80177 2.73035 5.60143 3.16057C6.40119 3.59084 7.08196 4.21246 7.58297 4.96992L8 5.60044L8.41703 4.96992C8.91804 4.21246 9.59881 3.59084 10.3986 3.16057C11.1982 2.73035 12.092 2.50482 13 2.50409C13 2.50409 13 2.50409 13.0001 2.50409C13.0002 2.50409 13.0003 2.50409 13.0004 2.50409L14.58 2.50409H15.7871L14.9336 1.65054L14.6436 1.36054L14.5 1.50409L14.6436 1.36054C14.549 1.266 14.4959 1.13778 14.4959 1.00409C14.4959 0.870399 14.549 0.742181 14.6436 0.647645C14.7381 0.553109 14.8663 0.5 15 0.5C15.0662 0.5 15.1317 0.513039 15.1929 0.538372C15.2541 0.563705 15.3096 0.600835 15.3564 0.647645L17.355 2.6462C17.3552 2.64643 17.3555 2.64666 17.3557 2.64689C17.4017 2.69347 17.4381 2.74863 17.4629 2.80925C17.4878 2.87017 17.5004 2.9354 17.5 3.0012L17.5 3.0012L17.5 3.00698C17.5004 3.07279 17.4878 3.13802 17.4629 3.19894C17.4381 3.25955 17.4017 3.31472 17.3557 3.36129C17.3555 3.36152 17.3552 3.36175 17.355 3.36198L15.3579 5.3591C15.3577 5.35932 15.3574 5.35954 15.3572 5.35976C15.3106 5.40579 15.2555 5.44222 15.1948 5.46699C15.1339 5.49187 15.0687 5.50448 15.0029 5.5041V5.50407L14.9971 5.5041C14.9313 5.50448 14.8661 5.49187 14.8052 5.46699C14.7442 5.4421 14.6888 5.40544 14.6421 5.3591L14.6421 5.35909C14.5952 5.31261 14.558 5.25731 14.5327 5.19638C14.5073 5.13545 14.4942 5.0701 14.4942 5.00409C14.4942 4.93808 14.5073 4.87273 14.5327 4.8118C14.5577 4.75169 14.5942 4.69705 14.6402 4.65095L14.9375 4.36359L15.8266 3.50409H14.59H13C11.8065 3.50409 10.6619 3.9782 9.81802 4.82211C8.9741 5.66602 8.5 6.81062 8.5 8.00409C8.5 9.19757 8.9741 10.3422 9.81802 11.1861C10.6619 12.03 11.8065 12.5041 13 12.5041H14.58Z" fill="#EF5DA8" stroke="#EF5DA8"/>
</svg>
